<svg width="24" height="24" viewBox="0 0 24 24" fill="none" xmlns="http://www.w3.org/2000/svg">
<circle cx="12" cy="12" r="12" fill="#EBEDF0"/>
<path d="M9.55041 11.2773C9.54829 11.7834 9.55041 12.2895 9.55255 12.7957C10.4011 12.8233 11.2517 12.8106 12.1003 12.8233C11.726 14.7054 9.16552 15.3158 7.81083 14.0866C6.41785 13.0084 6.48378 10.6435 7.93205 9.64187C8.94434 8.83374 10.3841 9.03363 11.3964 9.73331C11.7941 9.36541 12.1662 8.97197 12.5256 8.56365C11.6835 7.89163 10.6499 7.41313 9.55041 7.46418C7.25576 7.38761 5.14611 9.3973 5.10785 11.692C4.96109 13.5677 6.19456 15.4072 7.93631 16.0708C9.67165 16.7385 11.8961 16.2834 13.0041 14.7246C13.7357 13.7399 13.8931 12.4725 13.808 11.2815C12.3874 11.2709 10.9689 11.273 9.55041 11.2773Z" fill="#6D747A"/>
<path d="M17.8486 11.271C17.8443 10.8478 17.8422 10.4225 17.8401 9.99927C17.4169 9.99927 16.9958 9.99927 16.5747 9.99927C16.5705 10.4225 16.5662 10.8457 16.5641 11.271C16.1388 11.2731 15.7155 11.2753 15.2924 11.2795C15.2924 11.7027 15.2924 12.1238 15.2924 12.5449C15.7155 12.5492 16.1409 12.5534 16.5641 12.5576C16.5684 12.9809 16.5684 13.4041 16.5726 13.8273C16.9958 13.8273 17.4169 13.8273 17.8401 13.8273C17.8422 13.4041 17.8443 12.9809 17.8486 12.5555C18.2739 12.5513 18.6971 12.5492 19.1203 12.5449C19.1203 12.1238 19.1203 11.7006 19.1203 11.2795C18.6971 11.2753 18.2718 11.2753 17.8486 11.271Z" fill="#6D747A"/>
</svg>
