<svg width="24" height="24" viewBox="0 0 24 24" fill="none" xmlns="http://www.w3.org/2000/svg">
<circle cx="12" cy="12" r="12" fill="#EBEDF0"/>
<path d="M18.8871 8.52748C18.7218 7.90501 18.2347 7.41473 17.6162 7.24833C16.4952 6.94605 12 6.94604 12 6.94604C12 6.94604 7.50487 6.94605 6.38381 7.24836C5.76534 7.41476 5.27825 7.90501 5.11294 8.52751C4.81256 9.6558 4.81256 12.01 4.81256 12.01C4.81256 12.01 4.81256 14.3641 5.11294 15.4924C5.27825 16.1149 5.76534 16.5847 6.38381 16.7512C7.50487 17.0535 12 17.0535 12 17.0535C12 17.0535 16.4952 17.0535 17.6162 16.7511C18.2347 16.5847 18.7218 16.1149 18.8871 15.4924C19.1875 14.3641 19.1875 12.0099 19.1875 12.0099C19.1875 12.0099 19.1875 9.6558 18.8871 8.52748Z" fill="#6D747A"/>
<path d="M10.5298 14.1469V9.87207L14.2869 12.0095L10.5298 14.1469Z" fill="#EBEDF0"/>
</svg>
