<svg width="28" height="28" viewBox="0 0 28 28" fill="none" xmlns="http://www.w3.org/2000/svg">
<path d="M14 0.666748C6.64002 0.666748 0.666687 6.64008 0.666687 14.0001C0.666687 21.3601 6.64002 27.3334 14 27.3334C21.36 27.3334 27.3334 21.3601 27.3334 14.0001C27.3334 6.64008 21.36 0.666748 14 0.666748ZM19.3334 15.3334H15.3334V19.3334C15.3334 20.0667 14.7334 20.6667 14 20.6667C13.2667 20.6667 12.6667 20.0667 12.6667 19.3334V15.3334H8.66669C7.93335 15.3334 7.33335 14.7334 7.33335 14.0001C7.33335 13.2667 7.93335 12.6667 8.66669 12.6667H12.6667V8.66675C12.6667 7.93342 13.2667 7.33342 14 7.33342C14.7334 7.33342 15.3334 7.93342 15.3334 8.66675V12.6667H19.3334C20.0667 12.6667 20.6667 13.2667 20.6667 14.0001C20.6667 14.7334 20.0667 15.3334 19.3334 15.3334Z" fill="#0096C8"/>
</svg>
